<svg width="46" height="46" viewBox="0 0 46 46" fill="none" xmlns="http://www.w3.org/2000/svg">
<circle cx="23" cy="23" r="23" fill="white"/>
<path d="M7 23C7 27.2435 8.68571 31.3131 11.6863 34.3137C14.6869 37.3143 18.7565 39 23 39C27.2435 39 31.3131 37.3143 34.3137 34.3137C37.3143 31.3131 39 27.2435 39 23C39 18.7565 37.3143 14.6869 34.3137 11.6863C31.3131 8.68571 27.2435 7 23 7C18.7565 7 14.6869 8.68571 11.6863 11.6863C8.68571 14.6869 7 18.7565 7 23Z" stroke="#D4B2A6" stroke-linecap="round" stroke-linejoin="round"/>
<path d="M30.1723 14.7269L28.8136 33.4827L21.355 25.3502L12.5171 23.3845L30.1723 14.7241V14.7269Z" stroke="#D4B2A6" stroke-linecap="round" stroke-linejoin="round"/>
<path d="M18.0347 25.0817L19.4558 32.3793L24.6554 28.5458M21.55 25.7075L24.5806 23.5518" stroke="#D4B2A6" stroke-linecap="round" stroke-linejoin="round"/>
</svg>
