<svg width="46" height="46" viewBox="0 0 46 46" fill="none" xmlns="http://www.w3.org/2000/svg">
<circle cx="23" cy="23" r="23" fill="white"/>
<path d="M31.578 26.0311L26.828 23.6561C26.7345 23.6095 26.6304 23.5884 26.5262 23.5949C26.4219 23.6014 26.3212 23.6353 26.2343 23.6932L23.7643 25.3409C22.4065 24.6897 21.3116 23.5948 20.6605 22.237L22.3081 19.767C22.366 19.6801 22.3999 19.5794 22.4064 19.4751C22.4129 19.3709 22.3918 19.2668 22.3452 19.1733L19.9702 14.4233C19.921 14.3241 19.8449 14.2407 19.7508 14.1825C19.6566 14.1243 19.548 14.0935 19.4373 14.0938C18.0201 14.0938 16.6609 14.6568 15.6587 15.6589C14.6566 16.661 14.0936 18.0202 14.0936 19.4375C14.0971 22.7433 15.4119 25.9128 17.7495 28.2503C20.0871 30.5879 23.2565 31.9027 26.5623 31.9062C27.9796 31.9062 29.3388 31.3432 30.3409 30.3411C31.3431 29.339 31.9061 27.9797 31.9061 26.5625C31.9062 26.4522 31.8755 26.344 31.8176 26.2502C31.7596 26.1563 31.6767 26.0805 31.578 26.0311ZM26.5623 30.7188C23.5713 30.7156 20.7037 29.526 18.5888 27.4111C16.4738 25.2961 15.2842 22.4285 15.2811 19.4375C15.2809 18.3973 15.6708 17.3948 16.3738 16.628C17.0768 15.8613 18.0418 15.386 19.0781 15.2961L21.1265 19.3945L19.4937 21.8496C19.4393 21.9306 19.4057 22.0238 19.3959 22.1209C19.386 22.218 19.4003 22.316 19.4373 22.4062C20.2262 24.2817 21.7181 25.7736 23.5936 26.5625C23.6839 26.6 23.7822 26.6147 23.8795 26.6051C23.9769 26.5955 24.0704 26.562 24.1517 26.5076L26.6069 24.8748L30.7052 26.9232C30.6149 27.9595 30.1393 28.9244 29.3723 29.6271C28.6053 30.3298 27.6026 30.7193 26.5623 30.7188ZM22.9998 8.15625C20.4157 8.15577 17.8761 8.82993 15.6325 10.112C13.3888 11.3942 11.5187 13.2398 10.2071 15.4664C8.89561 17.693 8.18809 20.2235 8.15457 22.8074C8.12105 25.3914 8.76268 27.9393 10.016 30.1992L8.24959 35.497C8.14493 35.8108 8.12974 36.1476 8.20573 36.4696C8.28172 36.7916 8.44588 37.0861 8.67982 37.32C8.91376 37.5539 9.20824 37.7181 9.53023 37.7941C9.85223 37.8701 10.189 37.8549 10.5029 37.7502L15.8006 35.9838C17.7823 37.0819 19.9891 37.7117 22.2519 37.8251C24.5146 37.9385 26.7733 37.5325 28.8549 36.6381C30.9365 35.7437 32.7857 34.3846 34.2609 32.6651C35.736 30.9456 36.798 28.9112 37.3655 26.7178C37.9329 24.5244 37.9908 22.2302 37.5346 20.011C37.0784 17.7919 36.1202 15.7065 34.7336 13.9149C33.3469 12.1232 31.5685 10.6727 29.5346 9.67454C27.5008 8.67637 25.2654 8.15701 22.9998 8.15625ZM22.9998 36.6562C20.5988 36.657 18.24 36.0247 16.1613 34.823C16.071 34.771 15.9687 34.7434 15.8644 34.7429C15.8003 34.7428 15.7366 34.7534 15.6759 34.7741L10.1273 36.6236C10.0227 36.6585 9.91045 36.6635 9.80311 36.6382C9.69578 36.6129 9.59763 36.5582 9.51964 36.4802C9.44166 36.4022 9.38694 36.304 9.36161 36.1967C9.33628 36.0894 9.34135 35.9771 9.37624 35.8725L11.2258 30.3239C11.2524 30.2441 11.2619 30.1596 11.2534 30.0759C11.245 29.9923 11.2189 29.9113 11.1768 29.8385C9.67119 27.236 9.06653 24.2094 9.45661 21.2282C9.8467 18.247 11.2097 15.4779 13.3342 13.3504C15.4587 11.2229 18.226 9.85596 21.2066 9.46168C24.1873 9.0674 27.2147 9.66781 29.8193 11.1697C32.4239 12.6717 34.4601 14.9912 35.6119 17.7684C36.7637 20.5457 36.9668 23.6254 36.1896 26.5299C35.4124 29.4343 33.6985 32.0011 31.3137 33.832C28.9289 35.663 26.0064 36.6557 22.9998 36.6562Z" fill="#D4B2A6"/>
</svg>
