<svg width="14" height="14" viewBox="0 0 14 14" fill="none" xmlns="http://www.w3.org/2000/svg">
<path d="M11.3748 12.8333C11.6069 12.8333 11.8295 12.7411 11.9936 12.5771C12.1576 12.413 12.2498 12.1904 12.2498 11.9583V9.91667C12.2498 9.6846 12.1576 9.46204 11.9936 9.29795C11.8295 9.13385 11.6069 9.04167 11.3748 9.04167C10.6923 9.04167 10.0215 8.93667 9.37984 8.72083C9.22643 8.67241 9.06268 8.66693 8.90637 8.70497C8.75007 8.74302 8.60716 8.82315 8.49317 8.93667L7.65317 9.77667C6.20202 8.98469 5.00931 7.79199 4.21734 6.34083L5.0515 5.50667C5.29067 5.27917 5.37817 4.94083 5.27317 4.61417C5.06317 3.97833 4.95817 3.3075 4.95817 2.625C4.95817 2.39294 4.86598 2.17038 4.70189 2.00628C4.53779 1.84219 4.31524 1.75 4.08317 1.75H2.0415C1.80944 1.75 1.58688 1.84219 1.42279 2.00628C1.25869 2.17038 1.1665 2.39294 1.1665 2.625C1.1665 8.25417 5.74567 12.8333 11.3748 12.8333ZM2.0415 2.33333H4.08317C4.16053 2.33333 4.23471 2.36406 4.28941 2.41876C4.34411 2.47346 4.37484 2.54765 4.37484 2.625C4.37484 3.37167 4.4915 4.10083 4.719 4.795C4.74817 4.87667 4.74234 4.99333 4.649 5.08667L3.49984 6.23C4.46234 8.11417 5.874 9.52583 7.764 10.5L8.9015 9.35083C8.98317 9.26917 9.094 9.24583 9.199 9.275C9.899 9.50833 10.6282 9.625 11.3748 9.625C11.4522 9.625 11.5264 9.65573 11.5811 9.71043C11.6358 9.76513 11.6665 9.83931 11.6665 9.91667V11.9583C11.6665 12.0357 11.6358 12.1099 11.5811 12.1646C11.5264 12.2193 11.4522 12.25 11.3748 12.25C6.0665 12.25 1.74984 7.93333 1.74984 2.625C1.74984 2.54765 1.78057 2.47346 1.83526 2.41876C1.88996 2.36406 1.96415 2.33333 2.0415 2.33333Z" fill="black"/>
</svg>
