<svg width="432" height="248" viewBox="0 0 432 248" fill="none" xmlns="http://www.w3.org/2000/svg">
<style>
    @media(prefers-color-scheme: dark){
        rect{
            fill: transparent;
        }
        .logo__letter{
            fill: #fff;
        }
    }
</style>
<path class="logo__letter" d="M185.312 185.586H180.82L76.1328 57.6562V157.461C76.1328 162.279 76.3932 166.12 76.9141 168.984C77.5651 171.719 78.6719 173.802 80.2344 175.234C81.7969 176.667 83.8151 177.578 86.2891 177.969C88.763 178.359 91.888 178.555 95.6641 178.555V183.438C92.2786 183.438 88.4375 183.438 84.1406 183.438C79.974 183.307 75.7422 183.242 71.4453 183.242C67.0182 183.242 62.7214 183.242 58.5547 183.242C54.388 183.242 50.6771 183.307 47.4219 183.438V178.555C51.4583 178.555 54.9089 178.359 57.7734 177.969C60.638 177.448 62.9167 176.471 64.6094 175.039C66.4323 173.607 67.7344 171.523 68.5156 168.789C69.2969 166.055 69.6875 162.344 69.6875 157.656V62.5391C69.6875 54.8568 67.6042 49.6484 63.4375 46.9141C59.2708 44.0495 52.7604 42.6172 43.9062 42.6172V37.7344C45.4688 37.9948 47.6172 38.125 50.3516 38.125C53.0859 38.125 55.9505 38.125 58.9453 38.125C61.9401 38.125 64.7396 38.125 67.3438 38.125C70.0781 37.9948 72.1615 37.8646 73.5938 37.7344L178.867 163.516V62.3438C178.867 58.3073 178.542 55.0521 177.891 52.5781C177.37 49.974 176.393 47.9557 174.961 46.5234C173.529 45.0911 171.51 44.1146 168.906 43.5938C166.302 43.0729 162.982 42.7474 158.945 42.6172V37.5391C161.419 37.6693 164.805 37.7995 169.102 37.9297C173.398 37.9297 177.76 37.9297 182.188 37.9297C186.745 37.9297 191.107 37.9297 195.273 37.9297C199.44 37.7995 202.695 37.6693 205.039 37.5391V42.6172C200.742 42.6172 197.292 42.8776 194.688 43.3984C192.214 43.7891 190.26 44.7005 188.828 46.1328C187.396 47.5651 186.419 49.5833 185.898 52.1875C185.508 54.6615 185.312 58.0469 185.312 62.3438V185.586ZM258.875 63.7109C257.182 59.4141 255.62 55.8984 254.188 53.1641C252.755 50.4297 251.193 48.2812 249.5 46.7188C247.807 45.1562 245.789 44.1146 243.445 43.5938C241.232 42.9427 238.367 42.6172 234.852 42.6172V37.5391C237.326 37.7995 240.776 37.9297 245.203 37.9297C249.63 37.9297 254.253 37.9297 259.07 37.9297C263.888 37.9297 268.51 37.9297 272.938 37.9297C277.495 37.7995 281.076 37.6693 283.68 37.5391V42.8125C279.643 42.9427 276.518 43.2682 274.305 43.7891C272.221 44.3099 270.789 45.2865 270.008 46.7188C269.357 48.2812 269.292 50.3646 269.812 52.9688C270.464 55.5729 271.635 59.0234 273.328 63.3203L311.805 166.445L351.062 61.3672C352.495 57.3307 353.341 54.1406 353.602 51.7969C353.992 49.3229 353.797 47.4349 353.016 46.1328C352.104 44.8307 350.542 43.9844 348.328 43.5938C346.245 43.2031 343.445 42.9427 339.93 42.8125V37.5391C342.404 37.6693 345.333 37.7995 348.719 37.9297C352.234 38.0599 355.75 38.125 359.266 38.125C362.781 38.125 366.102 38.125 369.227 38.125C372.352 38.125 374.826 37.9948 376.648 37.7344V42.6172C374.044 42.6172 371.831 42.8776 370.008 43.3984C368.315 43.9193 366.818 44.8307 365.516 46.1328C364.083 47.5651 362.716 49.5833 361.414 52.1875C360.242 54.7917 358.875 58.1771 357.312 62.3438L310.242 186.758H307.117L258.875 63.7109Z" fill="#1F1F1F"/>
<rect y="79" width="432" height="70" fill="#F3EEEB"/>
<path d="M34.24 104.75V125H33.37V102.17L49.93 122.72V102.5H50.8V125.33L34.24 104.75ZM70.9977 102.5H71.9877V125H70.9977V102.5ZM93.0529 104.75V125H92.1829V102.17L108.743 122.72V102.5H109.613V125.33L93.0529 104.75ZM150.721 125H149.671L145.411 116.42H133.471L129.301 125H128.251L139.471 101.96L150.721 125ZM145.051 115.55L139.411 104.12L133.891 115.55H145.051ZM209.467 102.5L199.177 125.51L188.887 102.5H189.967L199.267 123.23L208.447 102.5H209.467ZM244.228 125H243.178L238.918 116.42H226.978L222.808 125H221.758L232.978 101.96L244.228 125ZM238.558 115.55L232.918 104.12L227.398 115.55H238.558ZM262.872 102.5H263.862V124.13H270.822V125H262.872V102.5ZM298.375 125.6C296.275 125.6 294.325 125.05 292.525 123.95C290.725 122.85 289.295 121.39 288.235 119.57C287.195 117.73 286.675 115.76 286.675 113.66C286.675 111.58 287.205 109.64 288.265 107.84C289.325 106.02 290.755 104.58 292.555 103.52C294.355 102.44 296.305 101.9 298.405 101.9C300.525 101.9 302.475 102.43 304.255 103.49C306.035 104.55 307.445 105.99 308.485 107.81C309.545 109.61 310.075 111.56 310.075 113.66C310.075 115.82 309.545 117.82 308.485 119.66C307.445 121.48 306.025 122.93 304.225 124.01C302.445 125.07 300.495 125.6 298.375 125.6ZM298.375 124.73C300.295 124.73 302.075 124.24 303.715 123.26C305.355 122.26 306.655 120.92 307.615 119.24C308.595 117.54 309.085 115.7 309.085 113.72C309.085 111.76 308.605 109.94 307.645 108.26C306.685 106.58 305.385 105.25 303.745 104.27C302.105 103.27 300.325 102.77 298.405 102.77C296.465 102.77 294.675 103.27 293.035 104.27C291.395 105.25 290.085 106.58 289.105 108.26C288.145 109.94 287.665 111.76 287.665 113.72C287.665 115.7 288.145 117.54 289.105 119.24C290.085 120.92 291.395 122.26 293.035 123.26C294.675 124.24 296.455 124.73 298.375 124.73ZM346.458 102.5L336.168 125.51L325.878 102.5H326.958L336.258 123.23L345.438 102.5H346.458ZM381.219 125H380.169L375.909 116.42H363.969L359.799 125H358.749L369.969 101.96L381.219 125ZM375.549 115.55L369.909 104.12L364.389 115.55H375.549Z" fill="#1F1F1F"/>
<path d="M156.945 213.25H157.425V214.9C157.695 214.36 158.115 213.925 158.685 213.595C159.255 213.255 159.855 213.085 160.485 213.085C161.135 213.085 161.73 213.245 162.27 213.565C162.82 213.885 163.255 214.315 163.575 214.855C163.895 215.395 164.055 215.985 164.055 216.625C164.055 217.265 163.895 217.855 163.575 218.395C163.255 218.935 162.82 219.365 162.27 219.685C161.73 220.005 161.135 220.165 160.485 220.165C159.875 220.165 159.285 220 158.715 219.67C158.155 219.34 157.725 218.905 157.425 218.365V223H156.945V213.25ZM160.515 219.745C161.065 219.745 161.575 219.605 162.045 219.325C162.515 219.035 162.885 218.655 163.155 218.185C163.435 217.705 163.575 217.185 163.575 216.625C163.575 216.075 163.435 215.56 163.155 215.08C162.875 214.6 162.5 214.22 162.03 213.94C161.56 213.65 161.05 213.505 160.5 213.505C159.95 213.505 159.435 213.65 158.955 213.94C158.485 214.23 158.105 214.615 157.815 215.095C157.535 215.575 157.395 216.09 157.395 216.64C157.395 217.19 157.535 217.705 157.815 218.185C158.105 218.655 158.49 219.035 158.97 219.325C159.45 219.605 159.965 219.745 160.515 219.745ZM170.718 219.76C171.238 219.76 171.733 219.625 172.203 219.355C172.673 219.085 173.063 218.715 173.373 218.245V219.01C173.003 219.42 172.598 219.72 172.158 219.91C171.718 220.09 171.218 220.18 170.658 220.18C170.038 220.18 169.453 220.015 168.903 219.685C168.363 219.355 167.928 218.915 167.598 218.365C167.278 217.815 167.118 217.23 167.118 216.61C167.118 215.94 167.278 215.34 167.598 214.81C167.918 214.27 168.353 213.85 168.903 213.55C169.463 213.25 170.083 213.1 170.763 213.1C171.803 213.1 172.688 213.51 173.418 214.33L168.708 218.98C169.038 219.25 169.358 219.45 169.668 219.58C169.978 219.7 170.328 219.76 170.718 219.76ZM167.598 216.565C167.598 217.395 167.873 218.105 168.423 218.695L172.818 214.33C172.488 214.04 172.168 213.835 171.858 213.715C171.548 213.585 171.178 213.52 170.748 213.52C170.138 213.52 169.593 213.655 169.113 213.925C168.643 214.185 168.273 214.545 168.003 215.005C167.733 215.465 167.598 215.985 167.598 216.565ZM176.794 213.25H177.274V214.81C177.474 214.32 177.764 213.935 178.144 213.655C178.534 213.375 178.974 213.235 179.464 213.235C179.774 213.235 180.089 213.3 180.409 213.43V213.985C180.119 213.765 179.794 213.655 179.434 213.655C179.074 213.655 178.724 213.765 178.384 213.985C178.054 214.205 177.784 214.5 177.574 214.87C177.374 215.24 177.274 215.635 177.274 216.055V220H176.794V213.25ZM183.473 213.25H183.953V214.27C184.413 213.48 185.153 213.085 186.173 213.085C186.663 213.085 187.088 213.225 187.448 213.505C187.808 213.775 188.058 214.185 188.198 214.735C188.328 214.245 188.613 213.85 189.053 213.55C189.503 213.24 190.008 213.085 190.568 213.085C191.298 213.085 191.863 213.3 192.263 213.73C192.663 214.15 192.863 214.75 192.863 215.53V220H192.383V215.53C192.383 214.9 192.218 214.405 191.888 214.045C191.568 213.685 191.143 213.505 190.613 213.505C190.213 213.505 189.843 213.605 189.503 213.805C189.163 213.995 188.893 214.255 188.693 214.585C188.493 214.915 188.393 215.28 188.393 215.68V220H187.913V215.8C187.913 215.08 187.743 214.52 187.403 214.12C187.063 213.71 186.623 213.505 186.083 213.505C185.723 213.505 185.378 213.595 185.048 213.775C184.728 213.955 184.463 214.2 184.253 214.51C184.053 214.81 183.953 215.14 183.953 215.5V220H183.473V213.25ZM199.808 220.165C199.168 220.165 198.573 220.005 198.023 219.685C197.473 219.365 197.038 218.935 196.718 218.395C196.398 217.845 196.238 217.255 196.238 216.625C196.238 215.995 196.398 215.41 196.718 214.87C197.038 214.32 197.473 213.885 198.023 213.565C198.573 213.245 199.168 213.085 199.808 213.085C200.458 213.085 201.073 213.26 201.653 213.61C202.233 213.95 202.638 214.395 202.868 214.945V213.25H203.348V220H202.868V218.32C202.598 218.88 202.178 219.33 201.608 219.67C201.048 220 200.448 220.165 199.808 220.165ZM199.838 219.745C200.388 219.745 200.898 219.605 201.368 219.325C201.838 219.035 202.208 218.655 202.478 218.185C202.758 217.705 202.898 217.185 202.898 216.625C202.898 216.075 202.758 215.56 202.478 215.08C202.198 214.6 201.823 214.22 201.353 213.94C200.883 213.65 200.373 213.505 199.823 213.505C199.273 213.505 198.758 213.65 198.278 213.94C197.808 214.23 197.428 214.615 197.138 215.095C196.858 215.575 196.718 216.09 196.718 216.64C196.718 217.19 196.858 217.705 197.138 218.185C197.428 218.655 197.813 219.035 198.293 219.325C198.773 219.605 199.288 219.745 199.838 219.745ZM207.116 213.25H207.596V214.75C207.816 214.25 208.191 213.85 208.721 213.55C209.251 213.24 209.836 213.085 210.476 213.085C211.306 213.085 211.961 213.35 212.441 213.88C212.931 214.4 213.176 215.13 213.176 216.07V220H212.696V216.07C212.696 215.26 212.496 214.63 212.096 214.18C211.706 213.73 211.156 213.505 210.446 213.505C209.926 213.505 209.446 213.625 209.006 213.865C208.576 214.095 208.231 214.415 207.971 214.825C207.721 215.235 207.596 215.7 207.596 216.22V220H207.116V213.25ZM220.23 219.76C220.75 219.76 221.245 219.625 221.715 219.355C222.185 219.085 222.575 218.715 222.885 218.245V219.01C222.515 219.42 222.11 219.72 221.67 219.91C221.23 220.09 220.73 220.18 220.17 220.18C219.55 220.18 218.965 220.015 218.415 219.685C217.875 219.355 217.44 218.915 217.11 218.365C216.79 217.815 216.63 217.23 216.63 216.61C216.63 215.94 216.79 215.34 217.11 214.81C217.43 214.27 217.865 213.85 218.415 213.55C218.975 213.25 219.595 213.1 220.275 213.1C221.315 213.1 222.2 213.51 222.93 214.33L218.22 218.98C218.55 219.25 218.87 219.45 219.18 219.58C219.49 219.7 219.84 219.76 220.23 219.76ZM217.11 216.565C217.11 217.395 217.385 218.105 217.935 218.695L222.33 214.33C222 214.04 221.68 213.835 221.37 213.715C221.06 213.585 220.69 213.52 220.26 213.52C219.65 213.52 219.105 213.655 218.625 213.925C218.155 214.185 217.785 214.545 217.515 215.005C217.245 215.465 217.11 215.985 217.11 216.565ZM226.305 213.25H226.785V214.75C227.005 214.25 227.38 213.85 227.91 213.55C228.44 213.24 229.025 213.085 229.665 213.085C230.495 213.085 231.15 213.35 231.63 213.88C232.12 214.4 232.365 215.13 232.365 216.07V220H231.885V216.07C231.885 215.26 231.685 214.63 231.285 214.18C230.895 213.73 230.345 213.505 229.635 213.505C229.115 213.505 228.635 213.625 228.195 213.865C227.765 214.095 227.42 214.415 227.16 214.825C226.91 215.235 226.785 215.7 226.785 216.22V220H226.305V213.25ZM238.549 220.09C237.809 220.09 237.194 219.865 236.704 219.415C236.224 218.965 235.984 218.345 235.984 217.555V210.535H236.464V213.25H238.534V213.67H236.464V217.555C236.464 218.215 236.659 218.735 237.049 219.115C237.449 219.485 237.949 219.67 238.549 219.67V220.09ZM246.857 213.25H247.337V214.27C247.797 213.48 248.537 213.085 249.557 213.085C250.047 213.085 250.472 213.225 250.832 213.505C251.192 213.775 251.442 214.185 251.582 214.735C251.712 214.245 251.997 213.85 252.437 213.55C252.887 213.24 253.392 213.085 253.952 213.085C254.682 213.085 255.247 213.3 255.647 213.73C256.047 214.15 256.247 214.75 256.247 215.53V220H255.767V215.53C255.767 214.9 255.602 214.405 255.272 214.045C254.952 213.685 254.527 213.505 253.997 213.505C253.597 213.505 253.227 213.605 252.887 213.805C252.547 213.995 252.277 214.255 252.077 214.585C251.877 214.915 251.777 215.28 251.777 215.68V220H251.297V215.8C251.297 215.08 251.127 214.52 250.787 214.12C250.447 213.71 250.007 213.505 249.467 213.505C249.107 213.505 248.762 213.595 248.432 213.775C248.112 213.955 247.847 214.2 247.637 214.51C247.437 214.81 247.337 215.14 247.337 215.5V220H246.857V213.25ZM263.191 220.165C262.551 220.165 261.956 220.005 261.406 219.685C260.856 219.365 260.421 218.935 260.101 218.395C259.781 217.845 259.621 217.255 259.621 216.625C259.621 215.995 259.781 215.41 260.101 214.87C260.421 214.32 260.856 213.885 261.406 213.565C261.956 213.245 262.551 213.085 263.191 213.085C263.841 213.085 264.456 213.26 265.036 213.61C265.616 213.95 266.021 214.395 266.251 214.945V213.25H266.731V220H266.251V218.32C265.981 218.88 265.561 219.33 264.991 219.67C264.431 220 263.831 220.165 263.191 220.165ZM263.221 219.745C263.771 219.745 264.281 219.605 264.751 219.325C265.221 219.035 265.591 218.655 265.861 218.185C266.141 217.705 266.281 217.185 266.281 216.625C266.281 216.075 266.141 215.56 265.861 215.08C265.581 214.6 265.206 214.22 264.736 213.94C264.266 213.65 263.756 213.505 263.206 213.505C262.656 213.505 262.141 213.65 261.661 213.94C261.191 214.23 260.811 214.615 260.521 215.095C260.241 215.575 260.101 216.09 260.101 216.64C260.101 217.19 260.241 217.705 260.521 218.185C260.811 218.655 261.196 219.035 261.676 219.325C262.156 219.605 262.671 219.745 263.221 219.745ZM270.5 208.78H270.98V215.59L273.65 213.25H274.265L271.175 215.95L275.045 220H274.4L270.98 216.4V220H270.5V208.78ZM280.875 219.76C281.395 219.76 281.89 219.625 282.36 219.355C282.83 219.085 283.22 218.715 283.53 218.245V219.01C283.16 219.42 282.755 219.72 282.315 219.91C281.875 220.09 281.375 220.18 280.815 220.18C280.195 220.18 279.61 220.015 279.06 219.685C278.52 219.355 278.085 218.915 277.755 218.365C277.435 217.815 277.275 217.23 277.275 216.61C277.275 215.94 277.435 215.34 277.755 214.81C278.075 214.27 278.51 213.85 279.06 213.55C279.62 213.25 280.24 213.1 280.92 213.1C281.96 213.1 282.845 213.51 283.575 214.33L278.865 218.98C279.195 219.25 279.515 219.45 279.825 219.58C280.135 219.7 280.485 219.76 280.875 219.76ZM277.755 216.565C277.755 217.395 278.03 218.105 278.58 218.695L282.975 214.33C282.645 214.04 282.325 213.835 282.015 213.715C281.705 213.585 281.335 213.52 280.905 213.52C280.295 213.52 279.75 213.655 279.27 213.925C278.8 214.185 278.43 214.545 278.16 215.005C277.89 215.465 277.755 215.985 277.755 216.565ZM295.091 220.165C294.141 220.165 293.406 219.905 292.886 219.385C292.376 218.865 292.121 218.13 292.121 217.18V213.25H292.601V217.18C292.601 218 292.816 218.635 293.246 219.085C293.686 219.525 294.301 219.745 295.091 219.745C295.571 219.745 296.011 219.64 296.411 219.43C296.811 219.21 297.126 218.905 297.356 218.515C297.586 218.125 297.701 217.68 297.701 217.18V213.25H298.181V220H297.701V218.74C297.471 219.16 297.126 219.505 296.666 219.775C296.206 220.035 295.681 220.165 295.091 220.165ZM301.95 213.25H302.43V214.9C302.7 214.36 303.12 213.925 303.69 213.595C304.26 213.255 304.86 213.085 305.49 213.085C306.14 213.085 306.735 213.245 307.275 213.565C307.825 213.885 308.26 214.315 308.58 214.855C308.9 215.395 309.06 215.985 309.06 216.625C309.06 217.265 308.9 217.855 308.58 218.395C308.26 218.935 307.825 219.365 307.275 219.685C306.735 220.005 306.14 220.165 305.49 220.165C304.88 220.165 304.29 220 303.72 219.67C303.16 219.34 302.73 218.905 302.43 218.365V223H301.95V213.25ZM305.52 219.745C306.07 219.745 306.58 219.605 307.05 219.325C307.52 219.035 307.89 218.655 308.16 218.185C308.44 217.705 308.58 217.185 308.58 216.625C308.58 216.075 308.44 215.56 308.16 215.08C307.88 214.6 307.505 214.22 307.035 213.94C306.565 213.65 306.055 213.505 305.505 213.505C304.955 213.505 304.44 213.65 303.96 213.94C303.49 214.23 303.11 214.615 302.82 215.095C302.54 215.575 302.4 216.09 302.4 216.64C302.4 217.19 302.54 217.705 302.82 218.185C303.11 218.655 303.495 219.035 303.975 219.325C304.455 219.605 304.97 219.745 305.52 219.745Z" fill="#1F1F1F"/>
</svg>
