<svg width="46" height="46" viewBox="0 0 46 46" fill="none" xmlns="http://www.w3.org/2000/svg">
<circle cx="23" cy="23" r="23" fill="white"/>
<path d="M22.4998 29.3333C24.0469 29.3333 25.5307 28.7187 26.6246 27.6248C27.7186 26.5308 28.3332 25.0471 28.3332 23.5C28.3332 21.9529 27.7186 20.4692 26.6246 19.3752C25.5307 18.2812 24.0469 17.6667 22.4998 17.6667C20.9527 17.6667 19.469 18.2812 18.375 19.3752C17.2811 20.4692 16.6665 21.9529 16.6665 23.5C16.6665 25.0471 17.2811 26.5308 18.375 27.6248C19.469 28.7187 20.9527 29.3333 22.4998 29.3333Z" stroke="#D4B2A6" stroke-width="1.5" stroke-linecap="round" stroke-linejoin="round"/>
<path d="M9.375 29.3333V17.6667C9.375 15.7328 10.1432 13.8781 11.5107 12.5107C12.8781 11.1432 14.7328 10.375 16.6667 10.375H28.3333C30.2672 10.375 32.1219 11.1432 33.4893 12.5107C34.8568 13.8781 35.625 15.7328 35.625 17.6667V29.3333C35.625 31.2672 34.8568 33.1219 33.4893 34.4893C32.1219 35.8568 30.2672 36.625 28.3333 36.625H16.6667C14.7328 36.625 12.8781 35.8568 11.5107 34.4893C10.1432 33.1219 9.375 31.2672 9.375 29.3333Z" stroke="#D4B2A6" stroke-width="1.5"/>
<path d="M30.521 15.4938L30.5356 15.4777" stroke="#D4B2A6" stroke-width="1.5" stroke-linecap="round" stroke-linejoin="round"/>
</svg>
