<svg width="14" height="14" viewBox="0 0 14 14" fill="none" xmlns="http://www.w3.org/2000/svg">
<g clip-path="url(#clip0_142_19)">
<path d="M7.00023 2.3125C5.85384 2.3125 4.75439 2.7679 3.94377 3.57853C3.13314 4.38916 2.67773 5.4886 2.67773 6.635V6.95C2.85273 9.31833 4.81857 11.2229 7.00023 13.6875C9.27815 11.115 11.3227 9.16667 11.3227 6.635C11.3227 5.4886 10.8673 4.38916 10.0567 3.57853C9.24608 2.7679 8.14663 2.3125 7.00023 2.3125ZM7.00023 4.55833C7.41166 4.55833 7.81384 4.68037 8.15589 4.90901C8.49794 5.13765 8.76448 5.46261 8.9218 5.84277C9.07911 6.22293 9.12012 6.64122 9.03964 7.0447C8.95916 7.44818 8.76081 7.81872 8.46969 8.10944C8.17856 8.40015 7.80774 8.59798 7.40415 8.6779C7.00056 8.75781 6.58233 8.71621 6.20239 8.55836C5.82245 8.40052 5.49786 8.13352 5.26971 7.79115C5.04155 7.44878 4.92007 7.04643 4.92065 6.635C4.92142 6.08397 5.14086 5.55576 5.53078 5.1664C5.92069 4.77703 6.4492 4.55833 7.00023 4.55833Z" stroke="black" stroke-linecap="round" stroke-linejoin="round"/>
</g>
<defs>
<clipPath id="clip0_142_19">
<rect width="14" height="14" fill="white"/>
</clipPath>
</defs>
</svg>
